<svg height="512" viewBox="0 0 64 64" width="512" xmlns="http://www.w3.org/2000/svg" xmlns:xlink="http://www.w3.org/1999/xlink"><linearGradient id="linear-gradient" gradientUnits="userSpaceOnUse" x1="32" x2="32" y1="1.304" y2="63.304"><stop offset="0" stop-color="#ffe100"/><stop offset="1" stop-color="#f98900"/></linearGradient><radialGradient id="radial-gradient" cx="14.996904" cy="41.011764" gradientUnits="userSpaceOnUse" r="12.002"><stop offset="0" stop-color="#f60"/><stop offset=".098" stop-color="#ff6800" stop-opacity=".978"/><stop offset=".222" stop-color="#fe6d01" stop-opacity=".916"/><stop offset=".36" stop-color="#fe7501" stop-opacity=".814"/><stop offset=".509" stop-color="#fd8003" stop-opacity=".672"/><stop offset=".666" stop-color="#fc8e04" stop-opacity=".488"/><stop offset=".83" stop-color="#fba006" stop-opacity=".264"/><stop offset=".997" stop-color="#f9b508" stop-opacity=".004"/><stop offset="1" stop-color="#f9b508" stop-opacity="0"/></radialGradient><linearGradient id="linear-gradient-2" gradientUnits="userSpaceOnUse" x1="43" x2="43" y1="28.963" y2="20.906"><stop offset="0" stop-color="#803f02"/><stop offset=".174" stop-color="#6d3602"/><stop offset=".515" stop-color="#4d2601"/><stop offset=".802" stop-color="#3a1c01"/><stop offset="1" stop-color="#331901"/></linearGradient><linearGradient id="linear-gradient-3" gradientUnits="userSpaceOnUse" x1="35" x2="35" y1="52.187" y2="41.045"><stop offset="0" stop-color="#df6802"/><stop offset=".096" stop-color="#d96702"/><stop offset=".223" stop-color="#c96203"/><stop offset=".364" stop-color="#ae5c03"/><stop offset=".505" stop-color="#8c5304"/><stop offset=".554" stop-color="#9b5704"/><stop offset=".67" stop-color="#b95e03"/><stop offset=".785" stop-color="#ce6402"/><stop offset=".896" stop-color="#db6702"/><stop offset="1" stop-color="#df6802"/></linearGradient><linearGradient id="linear-gradient-4" gradientUnits="userSpaceOnUse" x1="54.196" x2="47.568" y1="34.137" y2="53.692"><stop offset="0" stop-color="#ff5f6f"/><stop offset=".346" stop-color="#ff2d44"/><stop offset=".722" stop-color="#d41e32"/><stop offset=".853" stop-color="#d61f33"/><stop offset=".918" stop-color="#de2337"/><stop offset=".968" stop-color="#eb293e"/><stop offset="1" stop-color="#f82f44"/></linearGradient><linearGradient id="linear-gradient-5" gradientUnits="userSpaceOnUse" x1="53.39" x2="51.95" y1="33.943" y2="41.215"><stop offset="0" stop-color="#ff8a95"/><stop offset=".66" stop-color="#ff495d"/><stop offset="1" stop-color="#ff2d44"/></linearGradient><linearGradient id="linear-gradient-6" gradientUnits="userSpaceOnUse" x1="59.638" x2="58.13" y1="40.443" y2="44.741"><stop offset="0" stop-color="#ff5f5f"/><stop offset=".283" stop-color="#ff565a"/><stop offset=".746" stop-color="#ff3d4d"/><stop offset="1" stop-color="#ff2d44"/></linearGradient><linearGradient id="linear-gradient-7" x1="50.627" x2="49.637" xlink:href="#linear-gradient-6" y1="38.547" y2="41.368"/><linearGradient id="linear-gradient-8" gradientUnits="userSpaceOnUse" x1="35.559" x2="32.84" y1="41.864" y2="44.885"><stop offset="0" stop-color="#ffe100"/><stop offset="1" stop-color="#f98900" stop-opacity="0"/></linearGradient><linearGradient id="linear-gradient-9" x1="34.559" x2="31.84" xlink:href="#linear-gradient-8" y1="47.864" y2="50.885"/><linearGradient id="linear-gradient-10" gradientUnits="userSpaceOnUse" x1="20" x2="20" y1="31.019" y2="19.568"><stop offset=".005" stop-color="#414d4d"/><stop offset=".206" stop-color="#3a4545"/><stop offset=".522" stop-color="#272e2e"/><stop offset=".914" stop-color="#080909"/><stop offset="1"/></linearGradient><linearGradient id="linear-gradient-11" gradientUnits="userSpaceOnUse" x1="19.088" x2="19.088" y1="21.166" y2="23.162"><stop offset=".005" stop-color="#505e5e"/><stop offset=".374" stop-color="#4b5656"/><stop offset=".955" stop-color="#3e3f3f"/><stop offset="1" stop-color="#3d3d3d"/></linearGradient><linearGradient id="linear-gradient-12" gradientUnits="userSpaceOnUse" x1="20" x2="20" y1="30.756" y2="19.401"><stop offset=".005" stop-color="#1b2121"/><stop offset=".374" stop-color="#141919"/><stop offset=".955" stop-color="#020202"/><stop offset="1"/></linearGradient><g id="_15-_Face_Blowing_a_Kiss" data-name="15- Face Blowing a Kiss"><path d="m32 63c-27.7 0-31.038-24-31-30v-2c-.038-6 3.3-30 31-30 27.7 0 31.038 24 31 30v2c.038 6-3.3 30-31 30z" fill="url(#linear-gradient)"/><circle cx="15" cy="41" fill="url(#radial-gradient)" r="12"/><path d="m48 26.5c0-3-2-6-5-6s-5 3-5 6c0 .181.014.332.021.5-.013.167-.021.335-.021.5 0 3 1 4 1 4s1-6 4-6 4 6 4 6 1-1 1-4c0-.167-.008-.335-.021-.5.007-.168.021-.319.021-.5z" fill="#eda406"/><path d="m39 30.5s-1-1-1-4 2-6 5-6 5 3 5 6-1 4-1 4-1-6-4-6-4 6-4 6z" fill="url(#linear-gradient-2)"/><path d="m39 44c0-2.653-4.691-2.96-7.16-2.995a2.105 2.105 0 0 0 -.508.057c2.499.163 5.668.757 5.668 2.938 0 3-6 3-6 3s5 0 5 3c0 1.8-2.528 2.521-4.546 2.808a1.978 1.978 0 0 0 .832.131c2.021-.164 5.714-.76 5.714-2.939 0-3-5-3-5-3s6 0 6-3z" fill="url(#linear-gradient-3)"/><path d="m61.93 38.762a5.376 5.376 0 0 0 -2.766-1.554 9.835 9.835 0 0 0 -1.459-.265 7.848 7.848 0 0 0 -2.358.1c-.165.033-.322.071-.471.112a6.354 6.354 0 0 0 -1.122.427 5.575 5.575 0 0 0 -.5.285c-.134.087-.236.162-.3.215s-.1.085-.1.085-1.129-2.876-5.267-3.941a6.771 6.771 0 0 0 -1.44-.221 4.755 4.755 0 0 0 -4.757 3.4c-.038.109-.07.214-.1.313 0 .019-.007.038-.012.057a5.765 5.765 0 0 0 -.988 1.943 7.49 7.49 0 0 0 -.111 3.643 27.324 27.324 0 0 0 7.436 12.639 25.805 25.805 0 0 0 9.89-5.162 33.259 33.259 0 0 0 4.781-11.606 4.036 4.036 0 0 0 -.356-.47z" fill="#ed8d06"/><path d="m59.164 37.208c-4.137-1.065-6.318.959-6.318.959s-1.129-2.876-5.266-3.941a4.854 4.854 0 0 0 -6.3 3.491 7.49 7.49 0 0 0 -.111 3.643 27.324 27.324 0 0 0 7.446 12.64 26 26 0 0 0 12.385-7.537 7.7 7.7 0 0 0 1.8-3.208 4.633 4.633 0 0 0 -3.636-6.047z" fill="#ec3a4a"/><path d="m59.164 37.208c-4.137-1.065-6.318.959-6.318.959s-1.129-2.876-5.266-3.941a4.854 4.854 0 0 0 -6.3 3.491 7.49 7.49 0 0 0 -.111 3.643 27.324 27.324 0 0 0 7.446 12.64 26 26 0 0 0 12.385-7.537 7.7 7.7 0 0 0 1.8-3.208 4.633 4.633 0 0 0 -3.636-6.047z" fill="url(#linear-gradient-4)"/><path d="m46.9 35.713c4.307 1.11 5.51 4.006 5.51 4.006s2.243-2.008 6.551-.9c2.739.705 3.722 2.337 3.964 3.841.276-1.724-.083-4.508-3.762-5.454-4.137-1.065-6.318.959-6.318.959s-1.129-2.876-5.266-3.941a4.78 4.78 0 0 0 -6.075 2.86c.996-1.162 2.696-2.067 5.396-1.371z" fill="url(#linear-gradient-5)"/><path d="m57.3 43.257a1.389 1.389 0 0 0 1.488 1.568 3.683 3.683 0 0 0 .9-.213 2.156 2.156 0 0 0 1.01-3.582c-.611-.717-2.764-1.838-3.5-.73-.339.512.1 1.427.129 1.993a5.547 5.547 0 0 1 -.027.964z" fill="url(#linear-gradient-6)"/><path d="m49.552 40.449c-.043.6.256 1.11.595 1.045a1.021 1.021 0 0 0 .362-.141 1.731 1.731 0 0 0 .644-1.477 2.228 2.228 0 0 0 -.24-.911c-.244-.478-1.106-1.226-1.4-.487a4.025 4.025 0 0 0 .052 1.329c.006.214.002.429-.013.642z" fill="url(#linear-gradient-7)"/><path d="m33.1 41.958c-.255.183-.534.409-.552.722a.834.834 0 0 0 .371.662c.207.162.45.277.644.455.276.252.434.61.688.885a.807.807 0 0 0 1 .238.9.9 0 0 0 .245-.3 2.5 2.5 0 0 0 .348-1.11.85.85 0 0 0 -.066-.446 2.346 2.346 0 0 0 -.247-.411 1.868 1.868 0 0 0 -2.431-.695z" fill="url(#linear-gradient-8)"/><path d="m32.1 47.958c-.255.183-.534.409-.552.722a.834.834 0 0 0 .371.662c.207.162.45.277.644.455.276.252.434.61.688.885a.807.807 0 0 0 1 .238.9.9 0 0 0 .245-.3 2.5 2.5 0 0 0 .348-1.11.85.85 0 0 0 -.066-.446 2.346 2.346 0 0 0 -.247-.411 1.868 1.868 0 0 0 -2.431-.695z" fill="url(#linear-gradient-9)"/><path d="m24 25c0-3.314-1.791-6-4-6s-4 2.686-4 6c0 .169.008.335.017.5-.009.165-.017.331-.017.5 0 3.314 1.791 6 4 6s4-2.686 4-6c0-.169-.008-.335-.017-.5.009-.165.017-.331.017-.5z" fill="#ffd000"/><path d="m24 24c0-3.314-1.791-6-4-6s-4 2.686-4 6c0 .169.008.335.017.5-.009.165-.017.331-.017.5 0 3.314 1.791 6 4 6s4-2.686 4-6c0-.169-.008-.335-.017-.5.009-.165.017-.331.017-.5z" fill="#eda406"/><ellipse cx="20" cy="25" fill="url(#linear-gradient-10)" rx="4" ry="6"/><path d="m20 23c1.741 0 3.218 1.671 3.768 4a8.755 8.755 0 0 0 .232-2c0-3.314-1.791-6-4-6s-4 2.686-4 6a8.755 8.755 0 0 0 .232 2c.55-2.329 2.027-4 3.768-4z"/><path d="m18.7 21.387a1.737 1.737 0 0 0 -.514 1.053.547.547 0 0 0 .018.258.447.447 0 0 0 .259.242.953.953 0 0 0 .969-.2c.328-.285.756-1.06.488-1.506-.29-.475-.935-.124-1.22.153z" fill="url(#linear-gradient-11)"/><path d="m20 19c-2.209 0-4 2.686-4 6s1.791 6 4 6 4-2.686 4-6-1.791-6-4-6zm0 10.5c-1.657 0-3-2.127-3-4.75s1.343-4.75 3-4.75 3 2.127 3 4.75-1.343 4.75-3 4.75z" fill="url(#linear-gradient-12)"/><path d="m43 20.5c2.833 0 4.771 2.674 4.979 5.5.007-.166.021-.317.021-.5 0-3-2-6-5-6s-5 3-5 6c0 .181.014.332.021.5.208-2.826 2.146-5.5 4.979-5.5z" fill="#ffd000"/></g></svg>